<svg xmlns="http://www.w3.org/2000/svg" xml:space="preserve" enable-background="new 0 0 280 370" viewBox="0 0 280 370"><path fill="#9da5e6" d="M270 369.67H10c-5.52 0-10-4.48-10-10v-350c0-5.52 4.48-10 10-10h260c5.52 0 10 4.48 10 10v350c0 5.52-4.48 10-10 10"/><defs><path id="a" d="M270 369.67H10c-5.52 0-10-4.48-10-10v-350c0-5.52 4.48-10 10-10h260c5.52 0 10 4.48 10 10v350c0 5.52-4.48 10-10 10"/></defs><clipPath id="b"><use href="#a" overflow="visible"/></clipPath><g clip-path="url(#b)"><defs><path id="c" d="M-12.2-7.01h304.41v383.35H-12.2z"/></defs><clipPath id="d"><use href="#c" overflow="visible"/></clipPath><path fill="#1e65f4" d="M-12.2-7.01h304.41v383.35H-12.2z" clip-path="url(#d)" enable-background="new" opacity=".19"/><defs><filter id="e" width="304.41" height="383.35" x="-12.2" y="-7.01" filterUnits="userSpaceOnUse"><feColorMatrix values="1 0 0 0 0 0 1 0 0 0 0 0 1 0 0 0 0 0 1 0"/></filter></defs><mask id="g" width="304.41" height="383.35" x="-12.2" y="-7.01" maskUnits="userSpaceOnUse"><g filter="url(#e)"><linearGradient id="f" x1="-3523.425" x2="-3195.455" y1="-715.291" y2="-849.536" gradientTransform="matrix(1 0 0 -1 3449.195 -618.313)" gradientUnits="userSpaceOnUse"><stop offset="0" stop-color="#fff"/><stop offset="1"/></linearGradient><path fill="url(#f)" d="M-12.2-7.01h304.41v383.35H-12.2z"/></g></mask><path fill="#1e65f4" fill-rule="evenodd" d="M292.2 184.67s-25.27 167.91-159.98 191.68H-12.2C242.4 341.6 292.2-7.01 292.2-7.01z" clip-rule="evenodd" enable-background="new" mask="url(#g)" opacity=".61"/><defs><filter id="h" width="159.98" height="191.68" x="132.23" y="184.67" filterUnits="userSpaceOnUse"><feColorMatrix values="1 0 0 0 0 0 1 0 0 0 0 0 1 0 0 0 0 0 1 0"/></filter></defs><mask id="j" width="159.98" height="191.68" x="132.23" y="184.67" maskUnits="userSpaceOnUse"><g filter="url(#h)"><linearGradient id="i" x1="-4076.427" x2="-3828.903" y1="-880.333" y2="-909.377" gradientTransform="matrix(1 0 0 -1 4131.112 -618.313)" gradientUnits="userSpaceOnUse"><stop offset="0" stop-color="#fff"/><stop offset="1"/></linearGradient><path fill="url(#i)" d="M132.23 184.67h159.98v191.68H132.23z"/></g></mask><path fill="#1e65f4" fill-rule="evenodd" d="M132.23 376.34c134.7-23.76 159.97-191.67 159.97-191.67v191.68H132.23z" clip-rule="evenodd" mask="url(#j)"/><defs><filter id="k" width="304.41" height="209.6" x="-12.2" y="-7.01" filterUnits="userSpaceOnUse"><feColorMatrix values="1 0 0 0 0 0 1 0 0 0 0 0 1 0 0 0 0 0 1 0"/></filter></defs><mask id="m" width="304.41" height="209.6" x="-12.2" y="-7.01" maskUnits="userSpaceOnUse"><g filter="url(#k)"><linearGradient id="l" x1="-3656.559" x2="-3274.416" y1="-920.242" y2="-1113.526" gradientTransform="matrix(1 0 0 -1 3449.195 -998.143)" gradientUnits="userSpaceOnUse"><stop offset="0" stop-color="#fff"/><stop offset="1"/></linearGradient><path fill="url(#l)" d="M-12.2-7.01h304.41v209.6H-12.2z"/></g></mask><path fill="#fff" fill-rule="evenodd" d="M292.2-7.01S162.33 207.98-12.21 202.49V-7.01z" clip-rule="evenodd" mask="url(#m)"/></g></svg>